#!OML:ASF H:\Terrain\Patient Classification 1\Takeo\Monday\TakeoMonday.ASF
:FULLY-SPECIFIED
:DEGREES
58
root 9.62642 17.7429 -1.08873 -11.8114 -35.488 7.68556
lowerback 4.48308 1.78925 -0.517338
upperback 2.57093 2.35072 0.294654
thorax 0.0941528 1.16278 0.489925
lowerneck -8.65597 8.32371 2.11568
upperneck 4.50408 11.1535 -3.92338
head 3.35448 5.41835 -0.9992
rclavicle -1.31074e-013 1.19271e-014
rhumerus -23.1043 27.2144 -75.7107
rradius 102.832
rwrist -22.3623
rhand -23.6355 20.4236
rfingers 7.12502
rthumb 2.8294 -9.53739
lclavicle -1.31074e-013 1.19271e-014
lhumerus -32.9014 -5.17384 84.2967
lradius 102.809
lwrist 31.9574
lhand -31.5511 6.30829
lfingers 7.12502
lthumb -4.81526 36.2336
rfemur 4.64129 1.8322 16.5319
rtibia 22.4088
rfoot -17.9212 -14.1769
rtoes -0.549895
lfemur -0.952859 5.82914 -22.7966
ltibia 14.9248
lfoot -7.97863 26.3687
ltoes 6.11399
59
root 9.6201 17.7442 -1.09169 -11.9219 -35.681 7.82094
lowerback 4.48486 1.76926 -0.679957
upperback 2.57634 2.31817 0.392206
thorax 0.08873 1.14418 0.682076
lowerneck -8.61683 8.40719 2.41363
upperneck 4.42414 11.2702 -4.47423
head 3.3855 5.46111 -1.22153
rclavicle 5.21313e-014 0
rhumerus -24.0376 27.1488 -75.9599
rradius 104.33
rwrist -22.3084
rhand -23.9272 20.8006
rfingers 7.12502
rthumb 2.54768 -9.16397
lclavicle 5.21313e-014 0
lhumerus -33.2204 -5.04121 84.61
lradius 103.843
lwrist 31.8216
lhand -31.6541 6.37794
lfingers 7.12502
lthumb -4.91475 36.3009
rfemur 4.68285 2.18605 16.5339
rtibia 22.3394
rfoot -17.9671 -14.3135
rtoes -0.746594
lfemur -1.15104 6.01335 -22.7992
ltibia 15.3201
lfoot -8.05466 26.3119
ltoes 6.59093
60
root 9.61572 17.7508 -1.09321 -11.9572 -35.8216 8.02683
lowerback 4.35186 1.75997 -0.759092
upperback 2.55881 2.30418 0.392875
thorax 0.141956 1.13638 0.731649
lowerneck -8.3981 8.43987 2.53318
upperneck 4.1791 11.3227 -4.87878
head 3.30002 5.4804 -1.38305
rclavicle -4.82053e-015 -3.18055e-015
rhumerus -25.0622 26.9628 -76.2784
rradius 105.726
rwrist -22.3118
rhand -24.1767 21.5026
rfingers 7.12502
rthumb 2.30668 -8.46464
lclavicle -4.82053e-015 -3.18055e-015
lhumerus -33.528 -4.88437 84.9715
lradius 104.757
lwrist 31.5965
lhand -31.5669 6.00924
lfingers 7.12502
lthumb -4.83054 35.9342
rfemur 4.56975 2.21349 16.371
rtibia 22.3616
rfoot -18.0119 -14.1253
rtoes -0.686537
lfemur -1.50719 6.35363 -22.8708
ltibia 15.717
lfoot -7.84246 26.156
ltoes 6.35391
61
root 9.61129 17.7462 -1.08689 -12.0027 -35.9773 8.06193
lowerback 4.24713 1.73444 -0.59294
upperback 2.59879 2.2765 0.379301
thorax 0.248754 1.12375 0.630366
lowerneck -8.50593 8.48541 2.40415
upperneck 4.28809 11.4 -4.85764
head 3.35053 5.51369 -1.34272
rclavicle 5.83681e-014 9.54166e-015
rhumerus -26.1349 26.6134 -76.8718
rradius 107.107
rwrist -22.3457
rhand -23.6395 22.1533
rfingers 7.12502
rthumb 2.8255 -7.80771
lclavicle 5.83681e-014 9.54166e-015
lhumerus -33.8711 -4.60666 85.2698
lradius 105.631
lwrist 31.1469
lhand -31.5345 5.33113
lfingers 7.12502
lthumb -4.79923 35.2568
rfemur 4.55085 2.1385 16.3155
rtibia 22.5041
rfoot -18.1396 -13.9737
rtoes -0.814357
lfemur -1.57193 7.0493 -22.8212
ltibia 16.05
lfoot -6.32135 25.5186
ltoes 1.48934
62
root 9.60424 17.736 -1.0838 -12.2144 -36.0935 8.27993
lowerback 4.23925 1.72541 -0.616866
upperback 2.69096 2.26284 0.269914
thorax 0.351445 1.1165 0.534471
lowerneck -8.84334 8.59229 2.66336
upperneck 4.46268 11.527 -4.99032
head 3.51025 5.56731 -1.40195
rclavicle -1.93939e-014 -1.98785e-014
rhumerus -26.9897 26.106 -77.5145
rradius 108.423
rwrist -22.2906
rhand -23.0683 22.5125
rfingers 7.12502
rthumb 3.37718 -7.44052
lclavicle -1.93939e-014 -1.98785e-014
lhumerus -34.1634 -4.47634 85.3862
lradius 106.582
lwrist 30.8513
lhand -31.4356 5.25875
lfingers 7.12502
lthumb -4.70379 35.1865
rfemur 4.52094 2.13629 16.1195
rtibia 22.7509
rfoot -18.2764 -13.9649
rtoes -1.28177
lfemur -1.53273 7.48952 -22.9167
ltibia 16.4245
lfoot -4.20196 24.6323
ltoes -5.8706
63
root 9.59688 17.7296 -1.09181 -12.5856 -36.1527 8.74242
lowerback 4.42476 1.69046 -1.02069
upperback 2.74924 2.19956 0.183862
thorax 0.297302 1.08034 0.669773
lowerneck -8.82783 8.72789 3.07029
upperneck 4.24072 11.6883 -5.47838
head 3.50569 5.63824 -1.62261
rclavicle -5.66661e-014 -1.66979e-014
rhumerus -27.7817 25.7164 -78.1182
rradius 109.6
rwrist -22.063
rhand -22.8296 22.6979
rfingers 7.12502
rthumb 3.60766 -7.25133
lclavicle -5.66661e-014 -1.66979e-014
lhumerus -34.5314 -4.19707 85.5796
lradius 107.539
lwrist 30.6425
lhand -31.3607 5.26051
lfingers 7.12502
lthumb -4.63144 35.1899
rfemur 4.46964 2.20601 15.7511
rtibia 23.0017
rfoot -18.3481 -13.9929
rtoes -1.4429
lfemur -1.67971 7.57833 -23.2042
ltibia 16.9516
lfoot -3.29507 24.203
ltoes -9.23597
64
root 9.59701 17.7228 -1.10105 -12.7719 -36.3503 8.95493
lowerback 4.6673 1.65732 -1.20797
upperback 2.72793 2.14495 0.261841
thorax 0.131776 1.05116 0.848701
lowerneck -8.56796 8.78089 2.75908
upperneck 3.85458 11.7768 -5.45849
head 3.30034 5.68825 -1.57648
rclavicle 1.41323e-014 7.95139e-016
rhumerus -28.9042 25.456 -78.7352
rradius 110.872
rwrist -21.8973
rhand -22.5773 22.7058
rfingers 7.12502
rthumb 3.85129 -7.23916
lclavicle 1.41323e-014 7.95139e-016
lhumerus -35.002 -3.82084 85.9392
lradius 108.428
lwrist 30.384
lhand -31.3096 5.25634
lfingers 7.12502
lthumb -4.58209 35.1868
rfemur 4.40191 2.34379 15.6336
rtibia 23.1316
rfoot -18.3238 -14.0078
rtoes -1.76163
lfemur -1.97033 8.01375 -23.2575
ltibia 17.61
lfoot -3.73683 23.9249
ltoes -9.45648
65
root 9.60276 17.7231 -1.10413 -12.5658 -36.6137 8.64706
lowerback 4.84168 1.72318 -0.739741
upperback 2.64129 2.25017 0.403523
thorax -0.0447727 1.10901 0.719851
lowerneck -8.43359 8.72789 2.47871
upperneck 3.73486 11.7273 -5.3909
head 3.20499 5.66617 -1.51959
rclavicle -7.16867e-015 3.18055e-014
rhumerus -30.254 24.8933 -79.1539
rradius 112.16
rwrist -21.7598
rhand -22.1438 22.8182
rfingers 7.12502
rthumb 4.26993 -7.11877
lclavicle -7.16867e-015 3.18055e-014
lhumerus -35.356 -4.02281 86.3605
lradius 109.179
lwrist 30.2003
lhand -31.2627 5.44011
lfingers 7.12502
lthumb -4.53678 35.3715
rfemur 4.29679 2.30787 15.9271
rtibia 23.1204
rfoot -18.2375 -13.8647
rtoes -2.43547
lfemur -2.36779 8.40517 -22.8236
ltibia 18.4007
lfoot -5.01786 23.5236
ltoes -6.53284
66
root 9.60367 17.7259 -1.10356 -12.2282 -36.7255 8.08591
lowerback 4.93354 1.69179 -0.161076
upperback 2.6007 2.23327 0.638817
thorax -0.124731 1.1047 0.634437
lowerneck -8.54819 8.72636 2.63705
upperneck 3.92505 11.7514 -5.86555
head 3.34375 5.65711 -1.68993
rclavicle 3.81667e-014 -9.54166e-015
rhumerus -31.4343 24.5431 -79.4092
rradius 113.258
rwrist -21.5328
rhand -21.9761 23.3629
rfingers 7.12502
rthumb 4.43182 -6.57077
lclavicle 3.81667e-014 -9.54166e-015
lhumerus -35.6475 -3.96735 86.8198
lradius 109.885
lwrist 30.0383
lhand -31.1598 5.5801
lfingers 7.12502
lthumb -4.43741 35.5136
rfemur 4.28008 2.09777 16.4101
rtibia 23.0735
rfoot -18.1248 -13.7425
rtoes -3.486
lfemur -2.79992 8.67182 -22.1991
ltibia 19.2707
lfoot -5.73868 23.0266
ltoes -3.96268
67
root 9.59839 17.7239 -1.10515 -11.9996 -36.9674 7.78936
lowerback 4.88284 1.59842 -0.0116803
upperback 2.6356 2.11536 0.918318
thorax -0.064299 1.04483 0.845272
lowerneck -8.85998 8.8809 2.53206
upperneck 4.16807 12.0013 -6.13916
head 3.51405 5.7571 -1.72573
rclavicle -4.13037e-014 -9.54166e-015
rhumerus -32.3014 24.4755 -79.7161
rradius 114.192
rwrist -21.0861
rhand -21.9522 23.9456
rfingers 7.12502
rthumb 4.45492 -5.98757
lclavicle -4.13037e-014 -9.54166e-015
lhumerus -35.8584 -3.39231 87.2165
lradius 110.464
lwrist 29.7462
lhand -31.28 5.34644
lfingers 7.12502
lthumb -4.55355 35.2775
rfemur 4.17053 2.07485 16.7064
rtibia 23.104
rfoot -18.0899 -13.6864
rtoes -4.09371
lfemur -3.25027 9.36205 -21.7975
ltibia 20.0816
lfoot -5.76838 22.4418
ltoes -4.14048
